<mxfile host="app.diagrams.net" agent="Mozilla/5.0 (Macintosh; Intel Mac OS X 10_15_7) AppleWebKit/537.36 (KHTML, like Gecko) Chrome/141.0.0.0 Safari/537.36" version="28.2.7">
  <diagram name="Page-1" id="awtB0ioEmoYkXtDg9gQD">
    <mxGraphModel dx="528" dy="706" grid="1" gridSize="10" guides="1" tooltips="1" connect="1" arrows="1" fold="1" page="1" pageScale="1" pageWidth="827" pageHeight="1169" math="0" shadow="0">
      <root>
        <mxCell id="0" />
        <mxCell id="1" parent="0" />
        <mxCell id="VO8Zhl_SUu81XuCLdKXt-3" value="" style="edgeStyle=orthogonalEdgeStyle;rounded=0;orthogonalLoop=1;jettySize=auto;html=1;fillColor=#f5f5f5;strokeColor=#666666;exitX=0.673;exitY=0.982;exitDx=0;exitDy=0;exitPerimeter=0;" edge="1" parent="1" source="VO8Zhl_SUu81XuCLdKXt-1" target="VO8Zhl_SUu81XuCLdKXt-2">
          <mxGeometry relative="1" as="geometry">
            <Array as="points">
              <mxPoint x="490" y="200" />
              <mxPoint x="500" y="200" />
            </Array>
          </mxGeometry>
        </mxCell>
        <mxCell id="VO8Zhl_SUu81XuCLdKXt-1" value="" style="html=1;verticalLabelPosition=bottom;align=center;labelBackgroundColor=#ffffff;verticalAlign=top;strokeWidth=2;strokeColor=#0080F0;shadow=0;dashed=0;shape=mxgraph.ios7.icons.user;" vertex="1" parent="1">
          <mxGeometry x="450" y="90" width="70" height="60" as="geometry" />
        </mxCell>
        <mxCell id="VO8Zhl_SUu81XuCLdKXt-2" value="ThingSpeak Cloud (Channel + Dashboard)" style="rounded=1;whiteSpace=wrap;html=1;fillColor=#dae8fc;strokeColor=#6c8ebf;" vertex="1" parent="1">
          <mxGeometry x="430" y="250" width="120" height="60" as="geometry" />
        </mxCell>
        <mxCell id="VO8Zhl_SUu81XuCLdKXt-4" value="views dashboard" style="text;html=1;whiteSpace=wrap;strokeColor=none;fillColor=none;align=center;verticalAlign=middle;rounded=0;fontSize=10;" vertex="1" parent="1">
          <mxGeometry x="490" y="170" width="60" height="30" as="geometry" />
        </mxCell>
        <mxCell id="VO8Zhl_SUu81XuCLdKXt-7" value="" style="edgeStyle=orthogonalEdgeStyle;rounded=0;orthogonalLoop=1;jettySize=auto;html=1;" edge="1" parent="1" source="VO8Zhl_SUu81XuCLdKXt-5" target="VO8Zhl_SUu81XuCLdKXt-2">
          <mxGeometry relative="1" as="geometry" />
        </mxCell>
        <mxCell id="VO8Zhl_SUu81XuCLdKXt-32" style="edgeStyle=orthogonalEdgeStyle;rounded=0;orthogonalLoop=1;jettySize=auto;html=1;exitX=0;exitY=0.75;exitDx=0;exitDy=0;entryX=1;entryY=0.75;entryDx=0;entryDy=0;dashed=1;dashPattern=8 8;" edge="1" parent="1" source="VO8Zhl_SUu81XuCLdKXt-5" target="VO8Zhl_SUu81XuCLdKXt-23">
          <mxGeometry relative="1" as="geometry" />
        </mxCell>
        <mxCell id="VO8Zhl_SUu81XuCLdKXt-5" value="Smart Irrigation System&amp;nbsp;&lt;div&gt;(IoT + Edge AI)&lt;/div&gt;" style="rounded=1;whiteSpace=wrap;html=1;fillColor=#d5e8d4;strokeColor=#82b366;" vertex="1" parent="1">
          <mxGeometry x="210" y="250" width="120" height="60" as="geometry" />
        </mxCell>
        <mxCell id="VO8Zhl_SUu81XuCLdKXt-8" value="Telemetry upload&lt;span style=&quot;background-color: transparent; color: light-dark(rgb(0, 0, 0), rgb(255, 255, 255));&quot;&gt;&amp;nbsp;&lt;/span&gt;&lt;div&gt;&lt;span style=&quot;background-color: transparent; color: light-dark(rgb(0, 0, 0), rgb(255, 255, 255));&quot;&gt;(Wi-Fi, HTTPS API)&lt;/span&gt;&lt;/div&gt;" style="text;html=1;whiteSpace=wrap;strokeColor=none;fillColor=none;align=center;verticalAlign=middle;rounded=0;fontSize=10;" vertex="1" parent="1">
          <mxGeometry x="330" y="281.1" width="100" height="30" as="geometry" />
        </mxCell>
        <mxCell id="VO8Zhl_SUu81XuCLdKXt-11" style="edgeStyle=orthogonalEdgeStyle;rounded=0;orthogonalLoop=1;jettySize=auto;html=1;exitX=0.25;exitY=0;exitDx=0;exitDy=0;" edge="1" parent="1" source="VO8Zhl_SUu81XuCLdKXt-2">
          <mxGeometry relative="1" as="geometry">
            <mxPoint x="480" y="150" as="targetPoint" />
            <Array as="points">
              <mxPoint x="470" y="250" />
              <mxPoint x="470" y="200" />
              <mxPoint x="480" y="200" />
            </Array>
          </mxGeometry>
        </mxCell>
        <mxCell id="VO8Zhl_SUu81XuCLdKXt-12" value="graphs &amp;amp; logs" style="text;html=1;whiteSpace=wrap;strokeColor=none;fillColor=none;align=center;verticalAlign=middle;rounded=0;fontSize=10;" vertex="1" parent="1">
          <mxGeometry x="420" y="170" width="60" height="30" as="geometry" />
        </mxCell>
        <mxCell id="VO8Zhl_SUu81XuCLdKXt-17" style="edgeStyle=orthogonalEdgeStyle;rounded=0;orthogonalLoop=1;jettySize=auto;html=1;fillColor=#ffe6cc;strokeColor=#d79b00;strokeWidth=2;" edge="1" parent="1" source="VO8Zhl_SUu81XuCLdKXt-16" target="VO8Zhl_SUu81XuCLdKXt-5">
          <mxGeometry relative="1" as="geometry" />
        </mxCell>
        <mxCell id="VO8Zhl_SUu81XuCLdKXt-16" value="&lt;div&gt;&lt;span&gt;Power Supply&amp;nbsp;&lt;/span&gt;&lt;/div&gt;&lt;div&gt;&lt;span&gt;(12V DC Adapter)&lt;/span&gt;&lt;/div&gt;&lt;div&gt;&lt;span&gt;Provides power to Arduino, ESP32, and pump&lt;/span&gt;&lt;/div&gt;" style="rounded=1;whiteSpace=wrap;html=1;fillColor=#ffe6cc;strokeColor=#d79b00;fontSize=10;" vertex="1" parent="1">
          <mxGeometry x="210" y="390" width="120" height="60" as="geometry" />
        </mxCell>
        <mxCell id="VO8Zhl_SUu81XuCLdKXt-31" style="edgeStyle=orthogonalEdgeStyle;rounded=0;orthogonalLoop=1;jettySize=auto;html=1;exitX=1;exitY=0.25;exitDx=0;exitDy=0;entryX=0;entryY=0.25;entryDx=0;entryDy=0;" edge="1" parent="1" source="VO8Zhl_SUu81XuCLdKXt-23" target="VO8Zhl_SUu81XuCLdKXt-5">
          <mxGeometry relative="1" as="geometry" />
        </mxCell>
        <mxCell id="VO8Zhl_SUu81XuCLdKXt-33" value="&lt;font&gt;Physical variables sensed&lt;/font&gt;" style="text;html=1;whiteSpace=wrap;strokeColor=none;fillColor=none;align=center;verticalAlign=top;rounded=0;fontSize=8;" vertex="1" parent="1">
          <mxGeometry x="123.23" y="220" width="80" height="30" as="geometry" />
        </mxCell>
        <mxCell id="VO8Zhl_SUu81XuCLdKXt-34" value="Irrigation control signal (pump activation)" style="text;html=1;whiteSpace=wrap;strokeColor=none;fillColor=none;align=center;verticalAlign=bottom;rounded=0;fontSize=8;" vertex="1" parent="1">
          <mxGeometry x="130" y="326.84" width="90" height="30" as="geometry" />
        </mxCell>
        <mxCell id="VO8Zhl_SUu81XuCLdKXt-18" value="" style="shape=image;html=1;verticalAlign=top;verticalLabelPosition=bottom;labelBackgroundColor=#ffffff;imageAspect=0;aspect=fixed;image=https://icons.diagrams.net/icon-cache1/Unicons_Line_vol_6-2968/temperature-half-915.svg;imageBorder=none;" vertex="1" parent="1">
          <mxGeometry x="62.67" y="275.7388636363636" width="31.102272727272727" height="31.102272727272727" as="geometry" />
        </mxCell>
        <mxCell id="VO8Zhl_SUu81XuCLdKXt-21" value="" style="html=1;verticalLabelPosition=bottom;align=center;labelBackgroundColor=#ffffff;verticalAlign=top;strokeWidth=2;shadow=0;dashed=0;shape=mxgraph.ios7.icons.lightbulb;strokeColor=#CCCC00;" vertex="1" parent="1">
          <mxGeometry x="66.82000000000001" y="229.68750000000003" width="22.8" height="27.16875" as="geometry" />
        </mxCell>
        <mxCell id="VO8Zhl_SUu81XuCLdKXt-22" value="" style="shape=image;html=1;verticalAlign=top;verticalLabelPosition=bottom;labelBackgroundColor=#ffffff;imageAspect=0;aspect=fixed;image=https://icons.diagrams.net/icon-cache1/Colorful-1979/advantage_eco_friendly-856.svg" vertex="1" parent="1">
          <mxGeometry x="62.67" y="326.84022727272725" width="31.102272727272727" height="31.102272727272727" as="geometry" />
        </mxCell>
        <mxCell id="VO8Zhl_SUu81XuCLdKXt-23" value="" style="rounded=0;whiteSpace=wrap;html=1;fillColor=none;" vertex="1" parent="1">
          <mxGeometry x="33.23000000000001" y="210.79" width="90" height="161" as="geometry" />
        </mxCell>
        <mxCell id="VO8Zhl_SUu81XuCLdKXt-25" value="Soil moisture" style="text;html=1;whiteSpace=wrap;strokeColor=none;fillColor=none;align=center;verticalAlign=middle;rounded=0;fontSize=9;" vertex="1" parent="1">
          <mxGeometry x="48.22" y="306.84" width="60" height="20" as="geometry" />
        </mxCell>
        <mxCell id="VO8Zhl_SUu81XuCLdKXt-26" value="Temperature" style="text;html=1;whiteSpace=wrap;strokeColor=none;fillColor=none;align=center;verticalAlign=middle;rounded=0;fontSize=9;" vertex="1" parent="1">
          <mxGeometry x="48.22" y="261.1" width="60" height="20" as="geometry" />
        </mxCell>
        <mxCell id="VO8Zhl_SUu81XuCLdKXt-27" value="Light intensity" style="text;html=1;whiteSpace=wrap;strokeColor=none;fillColor=none;align=center;verticalAlign=middle;rounded=0;fontSize=9;" vertex="1" parent="1">
          <mxGeometry x="48.230000000000004" y="209.69" width="60" height="20" as="geometry" />
        </mxCell>
        <mxCell id="VO8Zhl_SUu81XuCLdKXt-29" value="&lt;div&gt;&lt;span style=&quot;font-size: 12px;&quot;&gt;Field Environment&lt;/span&gt;&lt;/div&gt;&lt;div&gt;&lt;br&gt;&lt;/div&gt;" style="text;html=1;whiteSpace=wrap;strokeColor=none;fillColor=none;align=center;verticalAlign=top;rounded=0;" vertex="1" parent="1">
          <mxGeometry x="20.01" y="188.9" width="116.45" height="20.79" as="geometry" />
        </mxCell>
        <mxCell id="VO8Zhl_SUu81XuCLdKXt-36" value="Power" style="text;html=1;whiteSpace=wrap;strokeColor=none;fillColor=none;align=center;verticalAlign=middle;rounded=0;" vertex="1" parent="1">
          <mxGeometry x="270" y="340" width="40" height="22.06" as="geometry" />
        </mxCell>
      </root>
    </mxGraphModel>
  </diagram>
</mxfile>
